<svg xmlns="http://www.w3.org/2000/svg" viewBox="0 0 256 292"><path fill="#95BF47" d="M223.774 57.34c-.201-1.46-1.48-2.268-2.537-2.357-1.055-.088-23.383-1.743-23.383-1.743s-15.507-15.395-17.209-17.099c-1.703-1.703-5.029-1.185-6.32-.805-.19.056-3.388 1.043-8.678 2.68-5.18-14.906-14.322-28.604-30.405-28.604-.444 0-.901.018-1.358.044C129.31 3.407 123.832.779 119.22.779c-37.391 0-55.27 46.835-60.86 70.654-14.572 4.504-24.917 7.718-26.227 8.133-8.14 2.556-8.396 2.807-9.457 10.529C21.637 97.553 0 271.295 0 271.295l177.766 30.997 81.474-19.639s-35.255-224.164-35.466-225.313"/><path fill="#5E8E3E" d="M185.645 55.041c-5.29 1.637-11.347 3.509-18.01 5.584v-3.898c0-11.598-1.606-20.943-4.24-28.222l10.472 1.313c4.373 5.66 8.905 14.573 11.778 25.223"/><path fill="#fff" d="M163.395 28.505c-4.632 1.432-9.794 3.028-15.392 4.762-4.428-15.06-12.262-28.14-25.89-32.496 1.606-2.053 3.342-3.685 5.207-4.865 10.985 6.655 17.773 18.04 22.458 29.093l13.617 3.506Zm-38.085 11.793c-10.418 3.222-21.874 6.767-33.397 10.334C97.5 30.397 108.345 11.19 119.22 3.87c4.49 5.9 8.163 14.862 10.163 27.197l-4.073 9.231Zm-18.344-36.5c1.682 0 3.296.653 4.833 1.828-14.673 6.9-30.396 24.27-37.065 59.083l-22.456 6.953C59.326 47.552 75.063 3.798 106.966 3.798"/></svg>