<svg xmlns="http://www.w3.org/2000/svg" viewBox="0 0 24 24"><path fill="#222" d="M12.007 2.156c-1.076 0-2.15.41-2.97 1.23L2.87 9.553a4.197 4.197 0 0 0 0 5.935l5.904 5.907a4.197 4.197 0 0 0 5.935 0l.264-.264-1.414-1.414-.264.264a2.198 2.198 0 0 1-3.107 0L4.284 14.074a2.198 2.198 0 0 1 0-3.107l6.167-6.167a2.198 2.198 0 0 1 3.107 0l.264.264 1.414-1.414-.264-.264a4.181 4.181 0 0 0-2.965-1.23zm3.238 3.238c-1.076 0-2.15.41-2.97 1.23l-6.166 6.167a4.197 4.197 0 0 0 0 5.935l.264.264 1.414-1.414-.264-.264a2.198 2.198 0 0 1 0-3.107l6.167-6.167a2.198 2.198 0 0 1 3.107 0l5.904 5.907a2.198 2.198 0 0 1 0 3.107l-6.167 6.167a2.198 2.198 0 0 1-3.107 0l-.264-.264-1.414 1.414.264.264a4.197 4.197 0 0 0 5.935 0l6.167-6.167a4.197 4.197 0 0 0 0-5.935l-5.905-5.907a4.181 4.181 0 0 0-2.965-1.23z"/></svg>