<svg xmlns="http://www.w3.org/2000/svg" viewBox="0 0 640 640"><path fill="#635BFF" d="M414.21 275.63c0-41.59-20.16-74.44-58.72-74.44-38.72 0-62.08 32.85-62.08 74.12 0 48.94 27.63 73.65 67.26 73.65 19.33 0 33.97-4.39 45.02-10.58v-32.52c-11.06 5.54-23.74 8.97-39.85 8.97-15.79 0-29.78-5.54-31.57-24.71h79.59c0-2.12.35-10.49.35-14.49zm-80.42-15.46c0-18.36 11.23-26.02 21.46-26.02 9.91 0 20.49 7.66 20.49 26.02h-41.95zM237.69 201.19c-15.95 0-26.19 7.5-31.9 12.72l-2.12-10.09h-35.44v189.91l40.17-8.48.17-46.1c5.87 4.24 14.52 10.25 28.8 10.25 29.12 0 55.65-23.42 55.65-74.93-.17-47.15-27.03-73.28-55.33-73.28zm-9.74 112.73c-9.58 0-15.29-3.43-19.2-7.66l-.17-60.46c4.24-4.72 10.09-7.99 19.37-7.99 14.84 0 25.09 16.62 25.09 38.06 0 21.78-10.09 38.05-25.09 38.05zM131.97 191.11l40.33-8.65V149.6l-40.33 8.48v33.03zM131.97 204.32h40.33v143.6h-40.33zM88.24 215.55l-2.61-11.23H50.87v143.6h40.17V252.87c9.5-12.4 25.57-10.09 30.63-8.32V204.32c-5.22-1.96-24.23-5.54-33.43 11.23zM19.68 166.71l-39.36 8.32-.17 131.53c0 24.23 18.2 42.1 42.43 42.1 13.42 0 23.25-2.45 28.64-5.38v-32.69c-5.22 2.12-30.96 9.58-30.96-14.52V237.3h30.96v-32.98H20.26l-.58-37.61zM496.72 237.46c-9.58-3.43-15.29-5.87-15.29-9.58 0-3.27 2.94-5.87 9.74-5.87 13.08 0 26.35 5.38 35.28 9.74V194.4c-9.58-4.08-19.04-8.16-35.28-8.16-28.96 0-49.28 15.46-49.28 40.82 0 20.16 15.62 33.97 38.56 41.14l.49.17c9.09 3.27 16.27 5.87 16.27 9.91 0 4.39-3.92 7.01-12.24 7.01-13.58 0-30.96-6.36-40.82-12.4v37.77c12.07 5.54 24.07 8.65 40.82 8.65 29.78 0 50.43-14.52 50.43-40.66-.33-21.78-16.78-34.34-38.68-41.19z"/></svg>