<svg xmlns="http://www.w3.org/2000/svg" viewBox="0 0 256 256"><rect width="256" height="256" rx="20" fill="#3178c6"/><path fill="#fff" d="M150.518 200.475v27.62c4.492 2.302 9.805 4.028 15.938 5.179 6.133 1.151 12.597 1.726 19.393 1.726 6.622 0 12.914-.633 18.874-1.899 5.96-1.266 11.187-3.352 15.678-6.257 4.492-2.906 8.048-6.796 10.669-11.672 2.62-4.876 3.931-10.94 3.931-18.191 0-5.179-.916-9.708-2.748-13.59-1.832-3.882-4.348-7.306-7.547-10.27-3.2-2.965-6.97-5.613-11.314-7.943-4.343-2.33-9.054-4.488-14.131-6.472-3.716-1.497-7.023-2.906-9.92-4.226-2.898-1.32-5.36-2.668-7.384-4.053-2.024-1.385-3.586-2.86-4.688-4.427-1.1-1.566-1.652-3.363-1.652-5.39 0-1.848.462-3.504 1.39-4.967.925-1.463 2.244-2.723 3.955-3.778 1.71-1.055 3.78-1.87 6.209-2.446 2.429-.575 5.14-.863 8.131-.863 2.166 0 4.46.173 6.884.518 2.423.345 4.862.891 7.315 1.639 2.453.748 4.832 1.7 7.139 2.858a37.282 37.282 0 0 1 6.47 4.053v-25.735c-4.14-1.669-8.683-2.892-13.627-3.664-4.943-.777-10.616-1.163-17.018-1.163-6.535 0-12.756.691-18.664 2.073-5.908 1.382-11.128 3.549-15.66 6.502-4.531 2.953-8.131 6.768-10.8 11.443-2.668 4.676-4.002 10.326-4.002 16.952 0 8.702 2.572 16.032 7.719 21.988 5.147 5.957 13.08 10.696 23.8 14.218 3.89 1.323 7.49 2.636 10.8 3.938 3.311 1.303 6.166 2.677 8.565 4.124 2.4 1.446 4.28 3.066 5.643 4.863 1.361 1.796 2.042 3.908 2.042 6.336 0 1.756-.404 3.363-1.216 4.822-.81 1.46-2.056 2.723-3.737 3.792-1.681 1.068-3.78 1.898-6.296 2.49-2.516.59-5.465.888-8.849.888-5.757 0-11.399-1.033-16.922-3.097-5.524-2.064-10.542-5.18-15.06-9.347zm-55.906-74.36H130V104H30v22.115h35.388V234h29.224V126.115z"/></svg>