<svg xmlns="http://www.w3.org/2000/svg" viewBox="0 0 284 65" fill="currentColor"><path d="m141.68 16.25c-11.04 0-19 7.2-19 18s8.96 18 20 18c6.67 0 12.55-2.64 16.19-7.09l-7.65-4.42c-2.02 2.21-5.09 3.5-8.54 3.5-4.79 0-8.86-2.5-10.37-6.5h28.02c.22-1.12.35-2.28.35-3.5 0-10.79-7.96-17.99-19-17.99zm-9.46 14.5c1.25-3.99 4.67-6.5 9.45-6.5 4.79 0 8.21 2.51 9.45 6.5h-18.9zm-39.34-14.5c-11.04 0-19 7.2-19 18s8.96 18 20 18c6.67 0 12.55-2.64 16.19-7.09l-7.65-4.42c-2.02 2.21-5.09 3.5-8.54 3.5-4.79 0-8.86-2.5-10.37-6.5h28.02c.22-1.12.35-2.28.35-3.5 0-10.79-7.96-17.99-19-17.99zm-9.45 14.5c1.25-3.99 4.67-6.5 9.45-6.5 4.79 0 8.21 2.51 9.45 6.5h-18.9zm-34.35-14.5c-7.18 0-12 3.58-14.67 6.78v-5.78h-11.9v44h12v-24c0-6.5 4.22-10.5 9.68-10.5 5 0 8.89 3.35 8.89 9.5v25h12v-27.5c0-10.5-7.29-17.5-16-17.5zM2 52.5h12v-44H2v44zm5.97-53.65c-3.87 0-5.97 2.59-5.97 5.65s2.1 5.65 5.97 5.65 5.97-2.59 5.97-5.65-2.1-5.65-5.97-5.65zM233.21 2.5h-12v50h12v-50zm58.54 0h-12v50h12v-50zm-47.42 0v7h8.45v43h12v-43h8.45v-7h-28.9zM142 0l-24.5 65h12l24.5-65h-12z"/><path d="M249.5 2.5l-24.5 65h12l24.5-65h-12z"/></svg>
