<svg xmlns="http://www.w3.org/2000/svg" viewBox="0 0 512 512"><path fill="#0C6EFC" d="M256 0C114.6 0 0 114.6 0 256s114.6 256 256 256 256-114.6 256-256S397.4 0 256 0z"/><path fill="#fff" d="M127.4 192.1l-38.9 127.8h-.4l-18.3-64.5c-3.3-11.5-6.2-23.2-8.8-35h-.4c-2.5 11.7-5.4 23.4-8.7 34.9L33.8 319.9h-.4L.1 192.1h31.4l20.3 72.4c2.7 9.8 5.2 19.8 7.5 30h.4c2.6-10.5 5.5-20.6 8.6-30.3l19.8-72.1h28l20.2 72.1c3.2 10.4 6.1 20.7 8.7 31h.4c2.3-10.2 4.7-20.2 7.3-30l20.6-73.1h30.1zm77.8 0h29.3v127.8h-29.3V192.1zm91 99.7l26.7-28.3-38.3-71.4h33.7l21.6 44.5 21.4-44.5h33.3l-38.3 71.4 26.8 28.3 38.5 28.1h-41.4l-40.4-31.5-40.6 31.5h-41.1l38.1-28.1z"/></svg>