<svg xmlns="http://www.w3.org/2000/svg" viewBox="0 0 122.5 122.5" fill="currentColor"><path d="M8.7 61.3c0 20.5 11.9 38.2 29.2 46.6L12.6 41.1c-2.5 6.2-3.9 13-3.9 20.2zm88.2-2.7c0-6.4-2.3-10.8-4.3-14.3-2.6-4.3-5.1-7.9-5.1-12.2 0-4.8 3.6-9.2 8.7-9.2h.7c-9.2-8.4-21.4-13.6-34.8-13.6-18 0-33.8 9.2-43 23.2 1.2 0 2.3.1 3.3.1 5.4 0 13.7-.7 13.7-.7 2.8-.2 3.1 3.9.3 4.2 0 0-2.8.3-5.9.5l18.7 55.8 11.3-33.8-8-21.9c-2.8-.2-5.4-.5-5.4-.5-2.8-.2-2.4-4.4.3-4.2 0 0 8.5.7 13.6.7 5.4 0 13.7-.7 13.7-.7 2.8-.2 3.1 3.9.3 4.2 0 0-2.8.3-5.9.5l18.6 55.3 5.1-17.2c2.2-7.2 3.9-12.3 3.9-16.7zM62 65.1l-15.4 44.8c4.6 1.4 9.5 2.1 14.6 2.1 6 0 11.8-1 17.2-2.9-.1-.2-.3-.5-.4-.7L62 65.1zm42.7-29.2c.5 3.4.7 7.1.7 11.1 0 10.9-2 23.2-8.2 38.6l22-63.6c-3.9-5.5-8.8-10.3-14.3-14.1-.1 9.4-.6 18.4-.2 28z"/></svg>
